<svg width="12" height="12" viewBox="0 0 12 12" fill="none" xmlns="http://www.w3.org/2000/svg">
<path d="M5.98206 10.0993L3.21539 11.766C3.09317 11.8438 2.96539 11.8771 2.83206 11.866C2.69873 11.8549 2.58206 11.8104 2.48206 11.7327C2.38206 11.6549 2.30428 11.5576 2.24873 11.4407C2.19317 11.3238 2.18206 11.1933 2.21539 11.0493L2.94873 7.89934L0.498728 5.78267C0.387617 5.68267 0.318284 5.56867 0.290728 5.44067C0.263172 5.31267 0.271395 5.18778 0.315395 5.066C0.359839 4.94378 0.426506 4.84378 0.515395 4.766C0.604283 4.68823 0.726506 4.63823 0.882061 4.616L4.11539 4.33267L5.36539 1.366C5.42095 1.23267 5.50717 1.13267 5.62406 1.066C5.74095 0.999337 5.86028 0.966003 5.98206 0.966003C6.10428 0.966003 6.22362 0.999337 6.34006 1.066C6.45651 1.13267 6.54273 1.23267 6.59873 1.366L7.84873 4.33267L11.0821 4.616C11.2376 4.63823 11.3598 4.68823 11.4487 4.766C11.5376 4.84378 11.6043 4.94378 11.6487 5.066C11.6932 5.18823 11.7016 5.31334 11.6741 5.44134C11.6465 5.56934 11.577 5.68311 11.4654 5.78267L9.01539 7.89934L9.74873 11.0493C9.78206 11.1938 9.77095 11.3244 9.71539 11.4413C9.65984 11.5582 9.58206 11.6553 9.48206 11.7327C9.38206 11.8104 9.2654 11.8549 9.13206 11.866C8.99873 11.8771 8.87095 11.8438 8.74873 11.766L5.98206 10.0993Z" fill="#FBB400"/>
</svg>
