<svg width="17" height="17" viewBox="0 0 17 17" fill="none" xmlns="http://www.w3.org/2000/svg">
<path d="M6.74512 1.72517C6.29276 1.57886 5.80307 1.59848 5.36387 1.78052C4.92467 1.96255 4.56468 2.29509 4.34845 2.7185L3.81112 3.76917C3.74726 3.89426 3.64554 3.99598 3.52045 4.05984L2.46912 4.59717C2.0457 4.8134 1.71316 5.17339 1.53113 5.61259C1.34909 6.05179 1.32947 6.54148 1.47578 6.99384L1.83978 8.11717C1.883 8.25065 1.883 8.39436 1.83978 8.52784L1.47645 9.65117C1.33014 10.1035 1.34976 10.5932 1.5318 11.0324C1.71383 11.4716 2.04637 11.8316 2.46978 12.0478L3.52045 12.5852C3.64554 12.649 3.74726 12.7507 3.81112 12.8758L4.34845 13.9272C4.56468 14.3506 4.92467 14.6831 5.36387 14.8652C5.80307 15.0472 6.29276 15.0668 6.74512 14.9205L7.86845 14.5565C8.00193 14.5133 8.14564 14.5133 8.27912 14.5565L9.40245 14.9198C9.85473 15.0662 10.3444 15.0467 10.7835 14.8648C11.2227 14.6829 11.5828 14.3505 11.7991 13.9272L12.3364 12.8758C12.4003 12.7507 12.502 12.649 12.6271 12.5852L13.6784 12.0485C14.102 11.8323 14.4347 11.4722 14.6167 11.0328C14.7987 10.5935 14.8183 10.1036 14.6718 9.65117L14.3078 8.52784C14.2646 8.39436 14.2646 8.25065 14.3078 8.11717L14.6711 6.99384C14.8175 6.54156 14.798 6.05193 14.616 5.61274C14.4341 5.17355 14.1017 4.81351 13.6784 4.59717L12.6271 4.05984C12.502 3.99598 12.4003 3.89426 12.3364 3.76917L11.7998 2.71784C11.5835 2.29428 11.2234 1.96163 10.7841 1.77959C10.3447 1.59754 9.8549 1.57802 9.40245 1.7245L8.27912 2.0885C8.14564 2.13172 8.00193 2.13172 7.86845 2.0885L6.74512 1.72517ZM4.58045 8.1605L5.52312 7.21784L7.40845 9.10384L11.1798 5.3325L12.1231 6.27517L7.40845 10.9885L4.58045 8.1605Z" fill="#1D9BF0"/>
</svg>
